<?xml version="1.0" encoding="UTF-8" standalone="no"?>
<!-- Created with Inkscape (http://www.inkscape.org/) -->

<svg
   xmlns:dc="http://purl.org/dc/elements/1.1/"
   xmlns:cc="http://creativecommons.org/ns#"
   xmlns:rdf="http://www.w3.org/1999/02/22-rdf-syntax-ns#"
   xmlns:svg="http://www.w3.org/2000/svg"
   xmlns="http://www.w3.org/2000/svg"
   xmlns:sodipodi="http://sodipodi.sourceforge.net/DTD/sodipodi-0.dtd"
   xmlns:inkscape="http://www.inkscape.org/namespaces/inkscape"
   id="svg2975"
   sodipodi:version="0.32"
   inkscape:version="0.47 r22583"
   width="620"
   height="810"
   sodipodi:docname="PeterM_Penguin_with_a_shirt_S1.svg"
   inkscape:output_extension="org.inkscape.output.svg.inkscape"
   version="1.0"
   inkscape:export-filename="/home/lartick/Téléchargements/PeterM_Penguin_with_a_shirt_S1.svg.png"
   inkscape:export-xdpi="22.682758"
   inkscape:export-ydpi="22.682758">
  <metadata
     id="metadata2980">
    <rdf:RDF>
      <cc:Work
         rdf:about="">
        <dc:format>image/svg+xml</dc:format>
        <dc:type
           rdf:resource="http://purl.org/dc/dcmitype/StillImage" />
        <dc:title></dc:title>
      </cc:Work>
    </rdf:RDF>
  </metadata>
  <defs
     id="defs2978">
    <inkscape:perspective
       sodipodi:type="inkscape:persp3d"
       inkscape:vp_x="0 : 405 : 1"
       inkscape:vp_y="0 : 1000 : 0"
       inkscape:vp_z="620 : 405 : 1"
       inkscape:persp3d-origin="310 : 270 : 1"
       id="perspective27" />
    <linearGradient
       id="linearGradient1545">
      <stop
         id="stop1546"
         offset="0"
         style="stop-color:#ffffff;stop-opacity:1;" />
      <stop
         id="stop1547"
         offset="1"
         style="stop-color:#ffffff;stop-opacity:0;" />
    </linearGradient>
    <inkscape:perspective
       id="perspective2862"
       inkscape:persp3d-origin="0.5 : 0.33333333 : 1"
       inkscape:vp_z="1 : 0.5 : 1"
       inkscape:vp_y="0 : 1000 : 0"
       inkscape:vp_x="0 : 0.5 : 1"
       sodipodi:type="inkscape:persp3d" />
    <inkscape:perspective
       id="perspective2884"
       inkscape:persp3d-origin="0.5 : 0.33333333 : 1"
       inkscape:vp_z="1 : 0.5 : 1"
       inkscape:vp_y="0 : 1000 : 0"
       inkscape:vp_x="0 : 0.5 : 1"
       sodipodi:type="inkscape:persp3d" />
  </defs>
  <sodipodi:namedview
     inkscape:window-height="732"
     inkscape:window-width="1280"
     inkscape:pageshadow="2"
     inkscape:pageopacity="0.0"
     guidetolerance="10.0"
     gridtolerance="10.0"
     objecttolerance="10.0"
     borderopacity="1.0"
     bordercolor="#666666"
     pagecolor="#ffffff"
     id="base"
     inkscape:zoom="0.64320988"
     inkscape:cx="310"
     inkscape:cy="405"
     inkscape:window-x="0"
     inkscape:window-y="29"
     inkscape:current-layer="g2326"
     showgrid="false"
     inkscape:window-maximized="0" />
  <g
     id="g2326"
     transform="translate(15.547025,7.7735125)">
    <path
       inkscape:export-ydpi="60.064171"
       inkscape:export-xdpi="60.064171"
       inkscape:export-filename="/home/peterm/afbeeldingen/svg/kroew.png"
       transform="matrix(1.101523,0,0,1,217.92251,262.82429)"
       d="M 346.07629,465.53714 A 269.47443,64.290855 0 1 1 -192.87256,465.53714 A 269.47443,64.290855 0 1 1 346.07629,465.53714 z"
       sodipodi:ry="64.290855"
       sodipodi:rx="269.47443"
       sodipodi:cy="465.53714"
       sodipodi:cx="76.601868"
       id="path3799"
       style="opacity:0.42900301;fill:#000000;fill-opacity:1;fill-rule:nonzero;stroke:none;stroke-width:10;stroke-linecap:square;stroke-linejoin:miter;stroke-miterlimit:4;stroke-dasharray:none;stroke-dashoffset:0;stroke-opacity:1"
       sodipodi:type="arc" />
    <path
       inkscape:export-ydpi="60.064171"
       inkscape:export-xdpi="60.064171"
       inkscape:export-filename="/home/peterm/afbeeldingen/svg/kroew.png"
       style="fill:#000000;fill-opacity:1;fill-rule:nonzero;stroke:#000000;stroke-width:6.31352901;stroke-linecap:round;stroke-linejoin:miter;stroke-miterlimit:4;stroke-dashoffset:0;stroke-opacity:1"
       d="m 280.71274,3.828493 c -54.77769,7.223598 -97.14943,53.986795 -97.14943,110.723517 0,41.55104 13.26402,69.52978 8.45895,103.87878 -9.74239,69.64355 -152.76255,123.01376 -152.76255,246.08802 0,143.38565 100.82959,278.41867 244.21524,278.41869 -47.84276,-171.01727 275.30927,-135.03304 275.30928,-278.41869 0,-124.92775 -127.60179,-166.813 -159.90111,-232.1412 -9.87986,-43.34896 8.3764,-77.10857 8.37641,-117.8256 C 407.25953,55.610668 361.5776,7.411673 303.71765,3.15768 263.55404,3.110253 291.8434,4.926176 280.71274,3.828493 z"
       id="path1564"
       sodipodi:nodetypes="cccccccccc" />
    <path
       inkscape:export-ydpi="60.064171"
       inkscape:export-xdpi="60.064171"
       inkscape:export-filename="/home/peterm/afbeeldingen/svg/kroew.png"
       sodipodi:nodetypes="cccccc"
       id="path1568"
       d="M 257.60955,237.12344 C 222.79401,268.74466 156.43525,329.85082 156.43525,411.88982 C 156.43525,512.92679 221.0188,594.90327 300.581,594.90324 C 380.1432,594.90324 444.72677,512.92676 444.72677,411.88982 C 444.72677,326.90822 375.39356,264.98633 337.12056,234.99263 C 324.03208,224.73548 270.18087,225.70554 257.60955,237.12344 z"
       style="fill:#ffffff;fill-opacity:1;fill-rule:nonzero;stroke:#ffffff;stroke-width:6.31352901;stroke-linecap:round;stroke-linejoin:miter;stroke-miterlimit:4;stroke-dashoffset:0;stroke-opacity:1" />
    <path
       inkscape:export-ydpi="60.064171"
       inkscape:export-xdpi="60.064171"
       inkscape:export-filename="/home/peterm/afbeeldingen/svg/kroew.png"
       style="fill:#f8bc0c;fill-opacity:1;fill-rule:nonzero;stroke:#000000;stroke-width:12.28078079;stroke-linecap:round;stroke-linejoin:miter;stroke-miterlimit:4;stroke-opacity:1;stroke-dasharray:none;stroke-dashoffset:0"
       d="m 315.38093,748.22289 c 8.7281,9.44114 168.18745,6.23144 175.5813,-0.60396 -57.59853,-71.82798 -25.55492,-92.91236 -88.05471,-95.94729 -51.12733,9.01149 -40.69962,30.18056 -87.52659,96.55125 z"
       id="path1610-3"
       sodipodi:nodetypes="cccc" />
    <path
       inkscape:export-ydpi="60.064171"
       inkscape:export-xdpi="60.064171"
       inkscape:export-filename="/home/peterm/afbeeldingen/svg/kroew.png"
       sodipodi:nodetypes="csss"
       style="fill:#000000;fill-opacity:1;fill-rule:nonzero;stroke:#000000;stroke-width:5.69270515;stroke-linecap:round;stroke-linejoin:miter;stroke-miterlimit:4;stroke-opacity:1;stroke-dashoffset:0"
       d="m 348.98169,519.86117 c -1.12035,86.71625 -0.95629,157.33864 51.33538,158.20333 76.9606,1.27262 40.03959,-82.20515 37.64317,-111.8014 -5.19833,-64.20053 -88.38766,-92.13714 -88.97855,-46.40193 z"
       id="path1586-8" />
    <path
       inkscape:export-ydpi="60.064171"
       inkscape:export-xdpi="60.064171"
       inkscape:export-filename="/home/peterm/afbeeldingen/svg/kroew.png"
       sodipodi:nodetypes="ccccc"
       id="rect1313"
       d="M 166.79036,255.98872 C 234.60953,302.6984 338.9114,307.21479 415.71866,257.39113 C 430.02007,297.16809 644.76768,406.44374 537.4722,623.07984 C 461.48206,656.55511 130.38274,653.44114 65.83197,623.07984 C -71.990855,381.29538 155.22293,293.37145 166.79036,255.98872 z"
       style="fill:#00aad4;fill-opacity:1;fill-rule:nonzero;stroke:#16192b;stroke-width:11.74737453;stroke-linecap:round;stroke-linejoin:miter;stroke-miterlimit:4;stroke-dasharray:none;stroke-dashoffset:0;stroke-opacity:1" />
    <path
       inkscape:export-ydpi="60.064171"
       inkscape:export-xdpi="60.064171"
       inkscape:export-filename="/home/peterm/afbeeldingen/svg/kroew.png"
       style="fill:#ffffff;fill-opacity:1;fill-rule:nonzero;stroke:none;stroke-width:7.30518723;stroke-linecap:round;stroke-linejoin:miter;stroke-miterlimit:4;stroke-dashoffset:0;stroke-opacity:1"
       d="M 324.90959,69.584578 C 309.49887,69.584578 296.23501,81.594008 289.34649,99.084038 C 282.39638,81.888978 269.26579,70.121858 254.01366,70.121858 C 231.58201,70.121858 213.35915,95.272388 213.35916,126.28085 C 213.35916,157.2893 231.58202,182.46543 254.01366,182.46542 C 269.42309,182.46542 309.65602,181.92814 324.90959,181.92814 C 347.34122,181.92814 365.5385,156.7776 365.53851,125.76915 C 365.53851,94.760698 347.34122,69.584578 324.90959,69.584578 z"
       id="path1570"
       sodipodi:nodetypes="cccccccc" />
    <path
       sodipodi:type="arc"
       style="fill:#000000;fill-opacity:1;fill-rule:nonzero;stroke:#000000;stroke-width:5;stroke-linecap:round;stroke-linejoin:miter;stroke-miterlimit:4;stroke-dashoffset:0;stroke-opacity:1"
       id="path1574"
       sodipodi:cx="313.14728"
       sodipodi:cy="356.36707"
       sodipodi:rx="34.345188"
       sodipodi:ry="47.477169"
       d="M 347.49247,356.36707 A 34.345188,47.477169 0 1 1 278.80209,356.36707 A 34.345188,47.477169 0 1 1 347.49247,356.36707 z"
       transform="matrix(0.598967,0,0,0.598967,73.10581,-65.659022)" />
    <path
       sodipodi:type="arc"
       style="fill:#ffffff;fill-opacity:1;fill-rule:nonzero;stroke:#000000;stroke-width:5;stroke-linecap:round;stroke-linejoin:miter;stroke-miterlimit:4;stroke-dashoffset:0;stroke-opacity:1"
       id="path1576"
       sodipodi:cx="313.14728"
       sodipodi:cy="356.36707"
       sodipodi:rx="34.345188"
       sodipodi:ry="47.477169"
       d="M 347.49247,356.36707 A 34.345188,47.477169 0 1 1 278.80209,356.36707 A 34.345188,47.477169 0 1 1 347.49247,356.36707 z"
       transform="matrix(0.262408,0,0,0.262408,180.69761,45.419188)" />
    <path
       sodipodi:type="arc"
       style="fill:#000000;fill-opacity:1;fill-rule:nonzero;stroke:#000000;stroke-width:5;stroke-linecap:round;stroke-linejoin:miter;stroke-miterlimit:4;stroke-dashoffset:0;stroke-opacity:1"
       id="path1580"
       sodipodi:cx="313.14728"
       sodipodi:cy="356.36707"
       sodipodi:rx="34.345188"
       sodipodi:ry="47.477169"
       d="M 347.49247,356.36707 A 34.345188,47.477169 0 1 1 278.80209,356.36707 A 34.345188,47.477169 0 1 1 347.49247,356.36707 z"
       transform="matrix(0.600571,0,0,0.600571,133.55321,-67.367162)" />
    <path
       sodipodi:type="arc"
       style="fill:#ffffff;fill-opacity:1;fill-rule:nonzero;stroke:#000000;stroke-width:5;stroke-linecap:round;stroke-linejoin:miter;stroke-miterlimit:4;stroke-dashoffset:0;stroke-opacity:1"
       id="path1582"
       sodipodi:cx="313.14728"
       sodipodi:cy="356.36707"
       sodipodi:rx="34.345188"
       sodipodi:ry="47.477169"
       d="M 347.49247,356.36707 A 34.345188,47.477169 0 1 1 278.80209,356.36707 A 34.345188,47.477169 0 1 1 347.49247,356.36707 z"
       transform="matrix(0.263111,0,0,0.263111,238.12461,45.111488)" />
    <path
       inkscape:export-ydpi="60.064171"
       inkscape:export-xdpi="60.064171"
       inkscape:export-filename="/home/peterm/afbeeldingen/svg/kroew.png"
       sodipodi:nodetypes="ccc"
       id="path2335"
       d="M 383.49149,268.75523 C 422.71229,262.91343 636.02219,415.30866 528.72669,618.51261 C 13.643737,749.93794 191.78149,334.73582 383.49149,268.75523 z"
       style="opacity:0.08173074;fill:#000000;fill-opacity:1;fill-rule:nonzero;stroke:none;stroke-width:11.74737453;stroke-linecap:round;stroke-linejoin:miter;stroke-miterlimit:4;stroke-dasharray:none;stroke-dashoffset:0;stroke-opacity:1" />
    <path
       inkscape:export-ydpi="60.064171"
       inkscape:export-xdpi="60.064171"
       inkscape:export-filename="/home/peterm/afbeeldingen/svg/kroew.png"
       sodipodi:nodetypes="cccccccc"
       style="fill:#000000;fill-opacity:1;fill-rule:nonzero;stroke:#000000;stroke-width:5.69270515;stroke-linecap:round;stroke-linejoin:miter;stroke-miterlimit:4;stroke-dashoffset:0;stroke-opacity:1"
       d="M 418.49801,250.84667 C 414.2975,252.07515 410.7753,254.19033 408.01566,257.23668 C 389.02183,278.20383 454.18109,372.31136 454.98565,397.14899 C 453.37417,409.08463 423.71835,508.14411 441.02353,530.47708 C 463.45685,559.4281 522.81717,523.27943 573.50356,449.76973 C 581.13337,438.70434 584.80677,426.7121 587.91476,415.14545 C 593.65838,390.1575 593.77275,363.15207 567.86481,336.48199 C 509.96497,276.87887 447.90151,242.2473 418.49801,250.84667 z"
       id="path1586" />
    <path
       inkscape:export-ydpi="60.064171"
       inkscape:export-xdpi="60.064171"
       inkscape:export-filename="/home/peterm/afbeeldingen/svg/kroew.png"
       sodipodi:nodetypes="cccccccc"
       style="fill:#000000;fill-opacity:1;fill-rule:nonzero;stroke:#000000;stroke-width:5.69270515;stroke-linecap:round;stroke-linejoin:miter;stroke-miterlimit:4;stroke-dashoffset:0;stroke-opacity:1"
       d="M 164.47101,248.42675 C 168.75294,249.33146 172.42614,251.172 175.40995,253.99913 C 195.94677,273.45743 138.15064,372.25805 139.2417,397.08475 C 141.75831,408.86282 178.87885,505.37351 163.32639,528.96063 C 143.16519,559.53743 81.22207,528.0188 25.079734,458.58664 C 16.628645,448.13505 12.051806,436.45771 8.0711769,425.16163 C 0.43949887,400.6842 -1.7330701,373.76605 22.066504,345.19869 C 75.25453,281.35546 134.49756,242.09375 164.47101,248.42675 z"
       id="path1614" />
    <path
       inkscape:export-ydpi="60.064171"
       inkscape:export-xdpi="60.064171"
       inkscape:export-filename="/home/peterm/afbeeldingen/svg/kroew.png"
       style="fill:#f8b80c;fill-opacity:1;fill-rule:nonzero;stroke:#000000;stroke-width:12.28078079;stroke-linecap:round;stroke-linejoin:miter;stroke-miterlimit:4;stroke-dasharray:none;stroke-dashoffset:0;stroke-opacity:1"
       d="M 352.07448,197.48497 C 352.07448,215.83407 326.38443,281.69578 292.40465,281.69578 C 258.42486,281.69578 228.95927,215.83407 228.95927,197.48497 C 228.95927,179.1359 256.53709,164.24388 290.51689,164.24388 C 324.49667,164.24388 352.07448,179.1359 352.07448,197.48497 z"
       id="path1624"
       sodipodi:nodetypes="ccccc" />
    <path
       inkscape:export-ydpi="60.064171"
       inkscape:export-xdpi="60.064171"
       inkscape:export-filename="/home/peterm/afbeeldingen/svg/kroew.png"
       transform="matrix(1.262706,0,0,1.262706,-132.61547,-216.54831)"
       sodipodi:type="arc"
       style="fill:#000000;fill-opacity:1;fill-rule:nonzero;stroke:#000000;stroke-width:5;stroke-linecap:round;stroke-linejoin:miter;stroke-miterlimit:4;stroke-dashoffset:0;stroke-opacity:1"
       id="path1628"
       sodipodi:cx="325.71429"
       sodipodi:cy="325.93362"
       sodipodi:rx="2.8571429"
       sodipodi:ry="6.4285712"
       d="M 328.57144,325.93362 A 2.8571429,6.4285712 0 1 1 322.85715,325.93362 A 2.8571429,6.4285712 0 1 1 328.57144,325.93362 z" />
    <path
       inkscape:export-ydpi="60.064171"
       inkscape:export-xdpi="60.064171"
       inkscape:export-filename="/home/peterm/afbeeldingen/svg/kroew.png"
       sodipodi:type="arc"
       style="fill:#000000;fill-opacity:1;fill-rule:nonzero;stroke:#000000;stroke-width:5;stroke-linecap:round;stroke-linejoin:miter;stroke-miterlimit:4;stroke-dashoffset:0;stroke-opacity:1"
       id="path1630"
       sodipodi:cx="325.71429"
       sodipodi:cy="325.93362"
       sodipodi:rx="2.8571429"
       sodipodi:ry="6.4285712"
       d="M 328.57144,325.93362 A 2.8571429,6.4285712 0 1 1 322.85715,325.93362 A 2.8571429,6.4285712 0 1 1 328.57144,325.93362 z"
       transform="matrix(1.262706,0,0,1.262706,-109.16487,-217.45021)" />
    <path
       inkscape:export-ydpi="60.064171"
       inkscape:export-xdpi="60.064171"
       inkscape:export-filename="/home/peterm/afbeeldingen/svg/kroew.png"
       style="fill:#f8bc0c;fill-opacity:1;fill-rule:nonzero;stroke:#000000;stroke-width:12.28078079;stroke-linecap:round;stroke-linejoin:miter;stroke-miterlimit:4;stroke-opacity:1;stroke-dasharray:none;stroke-dashoffset:0"
       d="m 279.82909,718.54002 c 15.47256,14.30399 16.38757,38.46591 2.08362,53.93849 -8.7281,9.44114 -168.18746,6.23144 -175.58131,-0.60396 -15.472495,-14.30399 -16.422045,-38.49777 -2.11802,-53.97032 14.2824,-15.44917 40.46198,-8.99712 53.86968,-2.14724 37.85828,-18.64798 49.51579,-13.67892 73.12977,0.21411 11.83421,-3.05898 34.91422,-10.0983 48.61626,2.56892 z"
       id="path2395"
       sodipodi:nodetypes="ccccccc" />
    <path
       inkscape:export-ydpi="60.064171"
       inkscape:export-xdpi="60.064171"
       inkscape:export-filename="/home/peterm/afbeeldingen/svg/kroew.png"
       style="fill:#f8bc0c;fill-opacity:1;fill-rule:nonzero;stroke:#000000;stroke-width:12.28078079;stroke-linecap:round;stroke-linejoin:miter;stroke-miterlimit:4;stroke-opacity:1;stroke-dasharray:none;stroke-dashoffset:0"
       d="m 319.24421,702.63175 c -15.47256,14.30399 -16.38757,38.46591 -2.08362,53.93849 8.7281,9.44114 168.18746,6.23144 175.58131,-0.60396 15.47249,-14.30399 16.42204,-38.49777 2.11802,-53.97032 -14.2824,-15.44917 -40.46198,-8.99712 -53.86968,-2.14724 -37.85828,-18.64798 -49.51579,-13.67892 -73.12977,0.21411 -11.83421,-3.05898 -34.91422,-10.0983 -48.61626,2.56892 z"
       id="path1610"
       sodipodi:nodetypes="ccccccc" />
  </g>
</svg>
